<svg width="33" height="37" viewBox="0 0 33 37" fill="none" xmlns="http://www.w3.org/2000/svg">
<path d="M22.8861 6.06131L24.2433 5.12566L19.6319 4.79429L21.2757 2.86452L16.1244 4.35571L17.644 1.02734L9.63975 5.91511C4.88979 8.34194 1.62598 13.3515 1.62598 19.136C1.62598 27.2985 8.11537 33.9162 16.1196 33.9162C24.1238 33.9162 30.6132 27.2985 30.6132 19.136C30.618 13.4636 27.4832 8.54174 22.8861 6.06131Z" fill="url(#paint0_linear_2001_613)"/>
<path d="M22.8861 6.06131L24.2433 5.12566L19.6319 4.79429L21.2757 2.86452L16.1244 4.35571L17.644 1.02734L9.63975 5.91511C4.88979 8.34194 1.62598 13.3515 1.62598 19.136C1.62598 27.2985 8.11537 33.9162 16.1196 33.9162C24.1238 33.9162 30.6132 27.2985 30.6132 19.136C30.618 13.4636 27.4832 8.54174 22.8861 6.06131Z" fill="#CBCBCB"/>
<path d="M32.2137 18.2151C32.0847 16.6069 31.9318 13.9754 27.9607 13.4394C21.2611 12.5427 18.6663 15.2863 17.9256 15.8126C17.3235 16.2414 16.1575 16.2317 16.1575 16.2317C16.1575 16.2317 14.9246 16.2414 14.3225 15.8126C13.5818 15.2863 10.987 12.5427 4.28735 13.4394C0.311527 13.9706 0.163389 16.6069 0.034366 18.2151C-0.128108 20.2179 0.19684 24.0823 2.96367 25.1885C6.3135 26.5238 12.6786 25.4176 14.1409 23.0785C15.3451 21.1536 14.5041 19.1556 16.1097 19.1556C17.7153 19.1556 16.8982 21.1536 18.1024 23.0785C19.5647 25.4176 25.9298 26.5238 29.2796 25.1885C32.0512 24.0872 32.3762 20.2179 32.2137 18.2151ZM12.7408 22.4498C10.3132 24.7792 5.28609 24.2626 3.87161 23.7997C1.67344 23.0833 0.789391 17.3525 2.62917 15.7785C4.39726 14.2629 9.87358 14.5894 12.6834 16.4754C13.9067 17.294 14.1027 21.139 12.7408 22.4498ZM28.3812 23.7997C26.9668 24.2626 21.9396 24.7792 19.5121 22.4498C18.1454 21.139 18.3461 17.2989 19.5742 16.4754C22.3841 14.5943 27.8651 14.2629 29.6285 15.7785C31.4635 17.3525 30.5794 23.0833 28.3812 23.7997Z" fill="#1A3B30"/>
<defs>
<linearGradient id="paint0_linear_2001_613" x1="16.1196" y1="1.02734" x2="16.1196" y2="33.9162" gradientUnits="userSpaceOnUse">
<stop stop-color="#7CD0FF"/>
<stop offset="1" stop-color="#1FAEFF"/>
</linearGradient>
</defs>
</svg>
